STARTFONT 2.1
COMMENT 
COMMENT This file has been produced by ttf2bdf written by Subhabrata Biswas
COMMENT 
COMMENT For comments, questions, bug reports, send a mail to
COMMENT                                           subhabrata.biswas@usa.net
COMMENT 
FONT -*-Kset Regular4-Medium-R-Normal--37-280-96-96-c-18--fontspecific
SIZE 28 96 96
FONTBOUNDINGBOX 64 33 -20 -6
STARTPROPERTIES 15
FOUNDRY "Misc"
FAMILY_NAME "Kset Regular4"
WEIGHT_NAME "Medium"
SLANT "R"
SETWIDTH_NAME "Normal"
PIXEL_SIZE 19
POINT_SIZE 280
RESOLUTION_X 96
RESOLUTION_Y 96
SPACING "C"
CHARSET_ENCODING "fontspecific"
FONT_ASCENT 27
FONT_DESCENT 6
DEFAULT_CHAR 31
COPYRIGHT "You may wish to put your copyright here"
ENDPROPERTIES
CHARS 226
STARTCHAR C0030
ENCODING 30
SWIDTH 508 0
DWIDTH 19 0
BBX 14 19 2 0
BITMAP
FFFC
FFFC
C00C
C00C
C00C
C00C
C00C
C00C
C00C
C00C
C00C
C00C
C00C
C00C
C00C
C00C
C00C
FFFC
FFFC
ENDCHAR
STARTCHAR C0031
ENCODING 31
SWIDTH 508 0
DWIDTH 19 0
BBX 14 19 2 0
BITMAP
FFFC
FFFC
C00C
C00C
C00C
C00C
C00C
C00C
C00C
C00C
C00C
C00C
C00C
C00C
C00C
C00C
C00C
FFFC
FFFC
ENDCHAR
STARTCHAR C0032- 
ENCODING 32
SWIDTH 214 0
DWIDTH 8 0
BBX 1 1 0 -1
BITMAP
00
ENDCHAR
STARTCHAR C0033-!
ENCODING 33
SWIDTH 187 0
DWIDTH 7 0
BBX 4 19 2 0
BITMAP
F0
F0
F0
F0
F0
F0
F0
F0
F0
F0
F0
F0
F0
60
00
60
F0
F0
60
ENDCHAR
STARTCHAR C0034-"
ENCODING 34
SWIDTH 294 0
DWIDTH 11 0
BBX 9 7 1 14
BITMAP
6300
F780
F780
F780
F780
6300
6300
ENDCHAR
STARTCHAR C0035-#
ENCODING 35
SWIDTH 508 0
DWIDTH 19 0
BBX 14 19 2 0
BITMAP
FFFC
FFFC
C00C
C00C
C00C
C00C
C00C
C00C
C00C
C00C
C00C
C00C
C00C
C00C
C00C
C00C
C00C
FFFC
FFFC
ENDCHAR
STARTCHAR C0036-$
ENCODING 36
SWIDTH 669 0
DWIDTH 25 0
BBX 19 19 3 0
BITMAP
7FFFC0
FFFFE0
FFBFE0
FF1FE0
FE0FE0
FE07E0
FC07E0
F803E0
F001E0
E000E0
C00060
FE0FE0
FE0FE0
FE0FE0
FE0FE0
FE0FE0
FE0FE0
FE0FE0
7E0FC0
ENDCHAR
STARTCHAR C0037-%
ENCODING 37
SWIDTH 508 0
DWIDTH 19 0
BBX 14 19 2 0
BITMAP
FFFC
FFFC
C00C
C00C
C00C
C00C
C00C
C00C
C00C
C00C
C00C
C00C
C00C
C00C
C00C
C00C
C00C
FFFC
FFFC
ENDCHAR
STARTCHAR C0038-&
ENCODING 38
SWIDTH 669 0
DWIDTH 25 0
BBX 19 19 3 0
BITMAP
7E0FC0
FE0FE0
FE0FE0
FE0FE0
FE0FE0
FE0FE0
FE0FE0
FE0FE0
E000E0
F000E0
F001E0
F803E0
FC07E0
FE0FE0
FF1FE0
FF1FE0
FFBFE0
FFFFE0
7FFFC0
ENDCHAR
STARTCHAR C0039-'
ENCODING 39
SWIDTH 160 0
DWIDTH 6 0
BBX 4 7 1 14
BITMAP
60
F0
F0
F0
F0
60
60
ENDCHAR
STARTCHAR C0040-(
ENCODING 40
SWIDTH 321 0
DWIDTH 12 0
BBX 7 26 1 -4
BITMAP
0C
1E
3E
3C
7C
78
78
F8
F0
F0
F0
F0
F0
F0
F0
F0
F0
F8
78
78
78
7C
3C
3E
1E
04
ENDCHAR
STARTCHAR C0041-)
ENCODING 41
SWIDTH 321 0
DWIDTH 12 0
BBX 7 26 2 -4
BITMAP
60
F0
F8
78
7C
3C
3C
3E
1E
1E
1E
1E
1E
1E
1E
1E
1E
3E
3C
3C
3C
7C
78
F8
F0
40
ENDCHAR
STARTCHAR C0042-*
ENCODING 42
SWIDTH 267 0
DWIDTH 10 0
BBX 8 9 1 13
BITMAP
38
38
FB
FF
FE
FE
FF
FB
38
ENDCHAR
STARTCHAR C0043-+
ENCODING 43
SWIDTH 375 0
DWIDTH 14 0
BBX 11 12 1 4
BITMAP
0E00
1F00
1F00
1F00
7FC0
FFE0
FFE0
7FC0
1F00
1F00
1F00
0E00
ENDCHAR
STARTCHAR C0044-,
ENCODING 44
SWIDTH 214 0
DWIDTH 8 0
BBX 4 7 2 -3
BITMAP
60
F0
F0
F0
F0
E0
E0
ENDCHAR
STARTCHAR C0045--
ENCODING 45
SWIDTH 428 0
DWIDTH 16 0
BBX 10 5 2 6
BITMAP
7F80
FFC0
FFC0
FFC0
7F80
ENDCHAR
STARTCHAR C0046-.
ENCODING 46
SWIDTH 187 0
DWIDTH 7 0
BBX 4 4 2 0
BITMAP
60
F0
F0
60
ENDCHAR
STARTCHAR C0047-/
ENCODING 47
SWIDTH 401 0
DWIDTH 15 0
BBX 13 23 1 -2
BITMAP
00F8
00F0
00F0
01E0
01E0
03E0
03C0
03C0
07C0
0780
0780
0F00
0F00
0F00
1E00
1E00
3E00
3C00
3C00
7C00
7800
7800
F000
ENDCHAR
STARTCHAR C0048-0
ENCODING 48
SWIDTH 455 0
DWIDTH 17 0
BBX 15 19 1 0
BITMAP
1EF0
3EF8
7EFC
7EFC
FC7E
F83E
F83E
F83E
F81E
F81E
F81E
F83E
F83E
F83E
FEFE
7EFC
7EFC
3EF8
0EE0
ENDCHAR
STARTCHAR C0049-1
ENCODING 49
SWIDTH 455 0
DWIDTH 17 0
BBX 11 20 3 0
BITMAP
00C0
09E0
1BE0
7BE0
FBE0
FBE0
FBE0
73E0
03E0
03E0
03E0
03E0
03E0
03E0
03E0
03E0
03E0
03E0
03E0
01C0
ENDCHAR
STARTCHAR C0050-2
ENCODING 50
SWIDTH 455 0
DWIDTH 17 0
BBX 13 20 2 0
BITMAP
0F80
3FE0
7FE0
FFF0
F9F0
F9F0
79F0
03F0
03E0
07E0
0FC0
1F80
1F80
3F00
7E00
7EF0
FCF8
F9F8
F9F8
73F0
ENDCHAR
STARTCHAR C0051-3
ENCODING 51
SWIDTH 455 0
DWIDTH 17 0
BBX 13 19 2 0
BITMAP
7780
F7E0
F7F0
F7F0
77F0
00F0
00F0
0FE0
0FE0
0FE0
07F0
00F8
00F8
01F8
77F8
F7F8
F7F0
F7F0
77C0
ENDCHAR
STARTCHAR C0052-4
ENCODING 52
SWIDTH 455 0
DWIDTH 17 0
BBX 13 19 2 0
BITMAP
7070
F8F8
F8F8
F8F8
F8F8
F8F8
F8F8
FEF8
FEF8
FEF8
7EF8
3EF8
00F8
00F8
00F8
00F8
00F8
00F8
0070
ENDCHAR
STARTCHAR C0053-5
ENCODING 53
SWIDTH 482 0
DWIDTH 18 0
BBX 14 19 2 0
BITMAP
71F0
F9F8
F9F8
F9F8
F9F0
F800
F800
F9E0
F9F8
F9F8
F9FC
00FC
007C
007C
007C
7FFC
FFF8
FFF0
7FE0
ENDCHAR
STARTCHAR C0054-6
ENCODING 54
SWIDTH 455 0
DWIDTH 17 0
BBX 15 19 1 0
BITMAP
0F78
1F7C
3F7C
7F7C
7F78
7C00
FC00
F800
F9F8
F9FC
F9FE
F9FE
F83E
7C1E
7C1E
7E3E
3FFC
1FF8
07E0
ENDCHAR
STARTCHAR C0055-7
ENCODING 55
SWIDTH 455 0
DWIDTH 17 0
BBX 15 20 1 0
BITMAP
3F90
7F3C
FF3E
7F7C
7E7C
00FC
00F8
00F8
01F0
01F0
03F0
03E0
07E0
07C0
07C0
0F80
0F80
1F80
0F00
0700
ENDCHAR
STARTCHAR C0056-8
ENCODING 56
SWIDTH 455 0
DWIDTH 17 0
BBX 13 19 2 0
BITMAP
0CE0
3CF0
7CF8
78F8
78F8
7DF8
7E78
3F30
3F80
1FC0
0FE0
67F0
F3F8
F9F8
F8F8
F8F8
7CF8
7CF0
1CC0
ENDCHAR
STARTCHAR C0057-9
ENCODING 57
SWIDTH 455 0
DWIDTH 17 0
BBX 15 19 1 0
BITMAP
0FC0
3FF0
7FF8
78FC
F07C
F07C
F83E
FF3E
7F3E
7F3E
3F3E
003E
007E
007C
3DFC
7DFC
7DF8
7DF0
3DE0
ENDCHAR
STARTCHAR C0058-:
ENCODING 58
SWIDTH 214 0
DWIDTH 8 0
BBX 4 13 2 1
BITMAP
60
F0
F0
60
00
00
00
00
00
60
F0
F0
60
ENDCHAR
STARTCHAR C0059-;
ENCODING 59
SWIDTH 214 0
DWIDTH 8 0
BBX 4 17 2 -3
BITMAP
60
F0
F0
60
00
00
00
00
00
00
60
F0
F0
F0
F0
E0
E0
ENDCHAR
STARTCHAR C0060-<
ENCODING 60
SWIDTH 830 0
DWIDTH 31 0
BBX 12 15 8 3
BITMAP
0060
01F0
07F0
1FF0
7FE0
FFC0
FF00
FC00
7100
0780
1FC0
0FE0
03F0
01E0
00E0
ENDCHAR
STARTCHAR C0061-=
ENCODING 61
SWIDTH 428 0
DWIDTH 16 0
BBX 10 12 2 5
BITMAP
7FC0
7FC0
7FC0
7FC0
7FC0
0000
0000
7FC0
7FC0
FFC0
7FC0
7FC0
ENDCHAR
STARTCHAR C0062->
ENCODING 62
SWIDTH 830 0
DWIDTH 31 0
BBX 12 15 8 3
BITMAP
6000
F800
FC00
FE00
7F00
3C00
08F0
03F0
07F0
1FF0
7FE0
FF80
FE00
FC00
7000
ENDCHAR
STARTCHAR C0063-?
ENCODING 63
SWIDTH 455 0
DWIDTH 17 0
BBX 12 20 1 0
BITMAP
1F80
3FE0
7FF0
F9F0
F9F0
79F0
71F0
03F0
03E0
07E0
07C0
07C0
0F80
0F80
1F00
0000
1F00
1F00
1F00
0E00
ENDCHAR
STARTCHAR C0064-@
ENCODING 64
SWIDTH 669 0
DWIDTH 25 0
BBX 64 19 -20 0
BITMAP
7FFFFFFFFFFFFFFE
C000000000000003
C000000000000003
CFFE0C1CDF3BDFFB
CFBF1E3DEF3BFFFB
CF1F1E3DF7BB9FFB
CF0F1E78F8380003
CE071EF078380383
CC071DE03C3BC383
C8031BC01E3BC383
CF0F13E00F3B8383
CF0F27B1C7380383
CF0F0F79E7BB8383
CF0F1E3DFFBBC383
CF0F1C1DFF3BC383
C000080000300183
C000000000000003
6000000000000006
3FFFFFFFFFFFFFFC
ENDCHAR
STARTCHAR C0065-A
ENCODING 65
SWIDTH 482 0
DWIDTH 18 0
BBX 18 19 0 0
BITMAP
01E000
03E000
03E000
03E000
07C800
07C800
0FDC00
0F9C00
0F9C00
1F3E00
1F3E00
3FBF00
3F9F00
3F9F00
7FDF80
7FCF80
FC2FC0
F80780
780780
ENDCHAR
STARTCHAR C0066-B
ENCODING 66
SWIDTH 482 0
DWIDTH 18 0
BBX 14 19 2 0
BITMAP
FBE0
FBF8
FBF8
F8FC
F87C
F87C
F87C
F8FC
FBF8
FBF0
FBF8
F8FC
F87C
F87C
F87C
F8FC
FBF8
FBF8
73E0
ENDCHAR
STARTCHAR C0067-C
ENCODING 67
SWIDTH 482 0
DWIDTH 18 0
BBX 15 19 1 0
BITMAP
0F7C
1F7E
3F7E
7F7E
7F7C
FC00
FC00
F800
F800
F800
F800
F800
FC00
FC00
7F7C
7F7E
3F7E
1F7E
0F7C
ENDCHAR
STARTCHAR C0068-D
ENCODING 68
SWIDTH 508 0
DWIDTH 19 0
BBX 16 19 1 0
BITMAP
F9F0
F9FC
F9FC
F9FE
F87E
F83F
F81F
F81F
F81F
F81F
F81F
F81F
F81F
F83F
F87E
F9FE
F9FC
F9FC
71F0
ENDCHAR
STARTCHAR C0069-E
ENCODING 69
SWIDTH 428 0
DWIDTH 16 0
BBX 12 19 2 0
BITMAP
FBE0
FBF0
FBF0
FBF0
FBE0
F800
F800
FBE0
FBF0
FBF0
FBF0
FBE0
F800
F800
FBE0
FBF0
FBF0
FBF0
73E0
ENDCHAR
STARTCHAR C0070-F
ENCODING 70
SWIDTH 428 0
DWIDTH 16 0
BBX 12 19 2 0
BITMAP
FBE0
FBF0
FBF0
FBF0
FBE0
F800
F800
FBE0
FBF0
FBF0
FBF0
FBE0
F800
F800
F800
F800
F800
F800
7000
ENDCHAR
STARTCHAR C0071-G
ENCODING 71
SWIDTH 455 0
DWIDTH 17 0
BBX 15 19 1 0
BITMAP
0F78
1F7C
3F7C
7F7C
7F78
FC00
FC00
F800
F800
F9F8
F9FC
F9FE
F8FE
FC1E
7F9E
7F9E
3F9E
1F9C
0F9C
ENDCHAR
STARTCHAR C0072-H
ENCODING 72
SWIDTH 508 0
DWIDTH 19 0
BBX 15 19 2 0
BITMAP
701C
F83E
F83E
F83E
F83E
F83E
F83E
FFBE
FFBE
FFBE
FFBE
FFBE
F83E
F83E
F83E
F83E
F83E
F83E
701C
ENDCHAR
STARTCHAR C0073-I
ENCODING 73
SWIDTH 187 0
DWIDTH 7 0
BBX 5 19 1 0
BITMAP
70
F8
F8
F8
F8
F8
F8
F8
F8
F8
F8
F8
F8
F8
F8
F8
F8
F8
70
ENDCHAR
STARTCHAR C0074-J
ENCODING 74
SWIDTH 241 0
DWIDTH 9 0
BBX 9 25 -2 -6
BITMAP
0700
0F80
0F80
0F80
0F80
0F80
0F80
0F80
0F80
0F80
0F80
0F80
0F80
0F80
0F80
0F80
0F80
0F80
0F80
0F80
6F80
EF00
EF00
EE00
6C00
ENDCHAR
STARTCHAR C0075-K
ENCODING 75
SWIDTH 562 0
DWIDTH 21 0
BBX 17 19 2 0
BITMAP
700600
F80F00
F81F80
F83F00
F87F00
F8FE00
F8FC00
F9F800
F3F000
E7E000
CFE000
8FD000
9F9800
3F3E00
7E7F00
FE3F80
FC1F80
F80F00
700700
ENDCHAR
STARTCHAR C0076-L
ENCODING 76
SWIDTH 428 0
DWIDTH 16 0
BBX 13 19 1 0
BITMAP
7000
F800
F800
F800
F800
F800
F800
F800
F800
F800
F800
F800
F800
F800
F9F0
F9F8
F9F8
F9F8
71F0
ENDCHAR
STARTCHAR C0077-M
ENCODING 77
SWIDTH 642 0
DWIDTH 24 0
BBX 20 19 2 0
BITMAP
7800E0
7C01F0
7C03F0
7E07E0
3F0FC0
9F8F90
9FDF90
CFCF30
E7E670
F3F4F0
F9F9F0
F9F9F0
F8F9F0
F871F0
F801F0
F801F0
F801F0
F801F0
7000E0
ENDCHAR
STARTCHAR C0078-N
ENCODING 78
SWIDTH 508 0
DWIDTH 19 0
BBX 17 19 2 0
BITMAP
700E00
F81F00
FC1F00
FE1F00
7E1F00
BF1F00
9F9F00
CFDF00
EFEF00
F7E700
F3F300
F9F900
F8FD00
F8FE00
F87E00
F83F00
F81F00
F80F80
700E00
ENDCHAR
STARTCHAR C0079-O
ENCODING 79
SWIDTH 562 0
DWIDTH 21 0
BBX 17 19 2 0
BITMAP
077000
1F7C00
3F7E00
7F7F00
7F7F00
FC1F80
FC1F80
F80F80
F80F80
F80F80
F80F80
F80F80
FC1F80
FC1F80
7F7F00
7F7F00
3F7E00
1F7C00
077000
ENDCHAR
STARTCHAR C0080-P
ENCODING 80
SWIDTH 482 0
DWIDTH 18 0
BBX 14 19 2 0
BITMAP
FBC0
FBF0
FBF8
FBF8
F8FC
F87C
F87C
F87C
F8FC
FBF8
FBF8
FBF0
FBC0
F800
F800
F800
F800
F800
7000
ENDCHAR
STARTCHAR C0081-Q
ENCODING 81
SWIDTH 562 0
DWIDTH 21 0
BBX 17 21 2 -2
BITMAP
077000
1F7C00
3F7E00
7F7F00
7F7F00
FC1F80
F80F80
F80F80
F80F80
F80F80
F80F80
F80F80
F80F80
FC1F80
7F7F00
7F7F00
3F7E00
1F7F00
077F80
000F80
000700
ENDCHAR
STARTCHAR C0082-R
ENCODING 82
SWIDTH 455 0
DWIDTH 17 0
BBX 14 19 2 0
BITMAP
FBE0
FBF0
FBF8
F8FC
F87C
F87C
F87C
F8FC
FBF8
FBF0
FBE0
F800
FBF0
F9F8
F8F8
F8FC
F87C
F87C
7038
ENDCHAR
STARTCHAR C0083-S
ENCODING 83
SWIDTH 455 0
DWIDTH 17 0
BBX 15 20 1 0
BITMAP
0000
79FC
FCFE
FE7E
7E3E
3F1C
1F80
0FC0
0FE0
07F0
03F8
01FC
00FC
707E
F87E
FC7E
FFFE
FFFE
7FFC
3FF8
ENDCHAR
STARTCHAR C0084-T
ENCODING 84
SWIDTH 482 0
DWIDTH 18 0
BBX 16 19 1 0
BITMAP
7FFF
FFFF
FFFF
FFFF
7FFF
0000
03E0
03E0
03E0
03E0
03E0
03E0
03E0
03E0
03E0
03E0
03E0
03E0
01C0
ENDCHAR
STARTCHAR C0085-U
ENCODING 85
SWIDTH 535 0
DWIDTH 20 0
BBX 16 19 2 0
BITMAP
700E
F81F
F81F
F81F
F81F
F81F
F81F
F81F
F81F
F81F
F81F
F81F
F81F
FC3F
FE7F
7E7E
7E7E
3E7C
0E70
ENDCHAR
STARTCHAR C0086-V
ENCODING 86
SWIDTH 455 0
DWIDTH 17 0
BBX 17 19 0 0
BITMAP
F00F00
F80F80
F81F80
F81F00
FC1F00
7C3E00
7E3E00
3E7E00
3E7C00
3F7C00
1F3800
1FB800
0F9800
0F9000
0FD000
07C000
07C000
03E000
03C000
ENDCHAR
STARTCHAR C0087-W
ENCODING 87
SWIDTH 857 0
DWIDTH 32 0
BBX 31 19 1 0
BITMAP
F00F003C
F80F803C
F81FA07C
F81F207C
FC1F70FC
7C3E70F8
7E3E70F8
3E7EF9F0
3E7CF9F0
3F7CFDF0
1F387CE0
1FB87CE0
0F983EC0
0F903E40
0FD03F40
07C01F00
07C01F00
03E00F00
03C00E00
ENDCHAR
STARTCHAR C0088-X
ENCODING 88
SWIDTH 535 0
DWIDTH 20 0
BBX 17 19 1 0
BITMAP
780700
7C0F80
FC1F80
7E3F80
3F3F00
3F9E00
1FDC00
0FC800
07E000
03F000
01F800
0DFC00
1CFC00
3E7E00
3F3F00
7E1F80
FC1F80
780F80
780700
ENDCHAR
STARTCHAR C0089-Y
ENCODING 89
SWIDTH 508 0
DWIDTH 19 0
BBX 15 19 1 0
BITMAP
781E
F81E
FC3E
7C3E
7E7E
3E7C
3EFC
1EF8
1CF8
1DF0
09F0
0BF0
03E0
07E0
07C0
07C0
0FC0
0F80
0780
ENDCHAR
STARTCHAR C0090-Z
ENCODING 90
SWIDTH 508 0
DWIDTH 19 0
BBX 17 20 1 -1
BITMAP
7FE700
FFCF80
FFDF80
FFBF00
7F3F00
007E00
00FC00
01F800
01F800
03F000
07E000
0FC000
0FC000
1F8000
3F3F00
7E7F00
7EFF00
7DFF00
79FF00
120000
ENDCHAR
STARTCHAR C0091-[
ENCODING 91
SWIDTH 508 0
DWIDTH 19 0
BBX 14 19 2 0
BITMAP
FFFC
FFFC
C00C
C00C
C00C
C00C
C00C
C00C
C00C
C00C
C00C
C00C
C00C
C00C
C00C
C00C
C00C
FFFC
FFFC
ENDCHAR
STARTCHAR C0092-\
ENCODING 92
SWIDTH 508 0
DWIDTH 19 0
BBX 14 19 2 0
BITMAP
FFFC
FFFC
C00C
C00C
C00C
C00C
C00C
C00C
C00C
C00C
C00C
C00C
C00C
C00C
C00C
C00C
C00C
FFFC
FFFC
ENDCHAR
STARTCHAR C0093-]
ENCODING 93
SWIDTH 508 0
DWIDTH 19 0
BBX 14 19 2 0
BITMAP
FFFC
FFFC
C00C
C00C
C00C
C00C
C00C
C00C
C00C
C00C
C00C
C00C
C00C
C00C
C00C
C00C
C00C
FFFC
FFFC
ENDCHAR
STARTCHAR C0094-^
ENCODING 94
SWIDTH 508 0
DWIDTH 19 0
BBX 14 19 2 0
BITMAP
FFFC
FFFC
C00C
C00C
C00C
C00C
C00C
C00C
C00C
C00C
C00C
C00C
C00C
C00C
C00C
C00C
C00C
FFFC
FFFC
ENDCHAR
STARTCHAR C0095-_
ENCODING 95
SWIDTH 508 0
DWIDTH 19 0
BBX 14 19 2 0
BITMAP
FFFC
FFFC
C00C
C00C
C00C
C00C
C00C
C00C
C00C
C00C
C00C
C00C
C00C
C00C
C00C
C00C
C00C
FFFC
FFFC
ENDCHAR
STARTCHAR C0096-`
ENCODING 96
SWIDTH 508 0
DWIDTH 19 0
BBX 14 19 2 0
BITMAP
FFFC
FFFC
C00C
C00C
C00C
C00C
C00C
C00C
C00C
C00C
C00C
C00C
C00C
C00C
C00C
C00C
C00C
FFFC
FFFC
ENDCHAR
STARTCHAR C0097-a
ENCODING 97
SWIDTH 482 0
DWIDTH 18 0
BBX 18 19 0 0
BITMAP
01E000
03E000
03E000
03E000
07C800
07C800
0FDC00
0F9C00
0F9C00
1F3E00
1F3E00
3FBF00
3F9F00
3F9F00
7FDF80
7FCF80
FC2FC0
F80780
780780
ENDCHAR
STARTCHAR C0098-b
ENCODING 98
SWIDTH 482 0
DWIDTH 18 0
BBX 14 19 2 0
BITMAP
FBE0
FBF8
FBF8
F8FC
F87C
F87C
F87C
F8FC
FBF8
FBF0
FBF8
F8FC
F87C
F87C
F87C
F8FC
FBF8
FBF8
73E0
ENDCHAR
STARTCHAR C0099-c
ENCODING 99
SWIDTH 482 0
DWIDTH 18 0
BBX 15 19 1 0
BITMAP
0F7C
1F7E
3F7E
7F7E
7F7C
FC00
FC00
F800
F800
F800
F800
F800
FC00
FC00
7F7C
7F7E
3F7E
1F7E
0F7C
ENDCHAR
STARTCHAR C0100-d
ENCODING 100
SWIDTH 482 0
DWIDTH 18 0
BBX 15 19 1 0
BITMAP
F9F0
F9F8
F9FC
F9FC
F87C
F87E
F83E
F83E
F83E
F83E
F83E
F83E
F83E
F87E
F87C
F9FC
F9FC
F9F8
71F0
ENDCHAR
STARTCHAR C0101-e
ENCODING 101
SWIDTH 428 0
DWIDTH 16 0
BBX 12 19 2 0
BITMAP
FBE0
FBF0
FBF0
FBF0
FBE0
F800
F800
FBE0
FBF0
FBF0
FBF0
FBE0
F800
F800
FBE0
FBF0
FBF0
FBF0
73E0
ENDCHAR
STARTCHAR C0102-f
ENCODING 102
SWIDTH 428 0
DWIDTH 16 0
BBX 12 19 2 0
BITMAP
FBE0
FBF0
FBF0
FBF0
FBE0
F800
F800
FBE0
FBF0
FBF0
FBF0
FBE0
F800
F800
F800
F800
F800
F800
7000
ENDCHAR
STARTCHAR C0103-g
ENCODING 103
SWIDTH 455 0
DWIDTH 17 0
BBX 15 19 1 0
BITMAP
0F78
1F7C
3F7C
7F7C
7F78
FC00
FC00
F800
F800
F9F8
F9FC
F9FE
F9FE
FC3E
7FBE
7FBE
3FBE
1FBC
0FB8
ENDCHAR
STARTCHAR C0104-h
ENCODING 104
SWIDTH 508 0
DWIDTH 19 0
BBX 15 19 2 0
BITMAP
701C
F83E
F83E
F83E
F83E
F83E
F83E
FF3E
FF3E
FF3E
FF3E
FF3E
F83E
F83E
F83E
F83E
F83E
F83E
701C
ENDCHAR
STARTCHAR C0105-i
ENCODING 105
SWIDTH 187 0
DWIDTH 7 0
BBX 5 19 1 0
BITMAP
70
F8
F8
F8
F8
F8
F8
F8
F8
F8
F8
F8
F8
F8
F8
F8
F8
F8
70
ENDCHAR
STARTCHAR C0106-j
ENCODING 106
SWIDTH 241 0
DWIDTH 9 0
BBX 9 25 -2 -6
BITMAP
0700
0F80
0F80
0F80
0F80
0F80
0F80
0F80
0F80
0F80
0F80
0F80
0F80
0F80
0F80
0F80
0F80
0F80
0F80
0F80
6F80
EF00
EF00
EE00
6C00
ENDCHAR
STARTCHAR C0107-k
ENCODING 107
SWIDTH 562 0
DWIDTH 21 0
BBX 17 19 2 0
BITMAP
700600
F80F00
F81F80
F83F00
F87F00
F8FE00
F8FC00
F9F800
F3F000
E7E000
CFE000
8FD000
9F9800
3F3E00
7E7F00
FE3F80
FC1F80
F80F00
700700
ENDCHAR
STARTCHAR C0108-l
ENCODING 108
SWIDTH 428 0
DWIDTH 16 0
BBX 13 19 1 0
BITMAP
7000
F800
F800
F800
F800
F800
F800
F800
F800
F800
F800
F800
F800
F800
F9F0
F9F8
F9F8
F9F8
71F0
ENDCHAR
STARTCHAR C0109-m
ENCODING 109
SWIDTH 642 0
DWIDTH 24 0
BBX 20 19 2 0
BITMAP
7800E0
7C01F0
7C03F0
7E07E0
3F0FC0
9F8F90
9FDF90
CFCF30
E7E670
F3F4F0
F9F9F0
F9F9F0
F8F9F0
F871F0
F801F0
F801F0
F801F0
F801F0
7000E0
ENDCHAR
STARTCHAR C0110-n
ENCODING 110
SWIDTH 508 0
DWIDTH 19 0
BBX 17 19 2 0
BITMAP
700E00
F81F00
FC1F00
FE1F00
7E1F00
BF1F00
9F9F00
CFDF00
EFEF00
F7E700
F3F300
F9F900
F8FD00
F8FE00
F87E00
F83F00
F81F00
F80F80
700E00
ENDCHAR
STARTCHAR C0111-o
ENCODING 111
SWIDTH 562 0
DWIDTH 21 0
BBX 17 19 2 0
BITMAP
077000
1F7C00
3F7E00
7F7F00
7F7F00
FC1F80
FC1F80
F80F80
F80F80
F80F80
F80F80
F80F80
FC1F80
FC1F80
7F7F00
7F7F00
3F7E00
1F7C00
077000
ENDCHAR
STARTCHAR C0112-p
ENCODING 112
SWIDTH 482 0
DWIDTH 18 0
BBX 14 19 2 0
BITMAP
FBC0
FBF0
FBF8
F9F8
F87C
F87C
F87C
F8FC
FBFC
FBF8
FBF8
FBF0
FBC0
F800
F800
F800
F800
F800
7000
ENDCHAR
STARTCHAR C0113-q
ENCODING 113
SWIDTH 562 0
DWIDTH 21 0
BBX 17 21 2 -2
BITMAP
077000
1F7C00
3F7E00
7F7F00
7F7F00
FC1F80
F80F80
F80F80
F80F80
F80F80
F80F80
F80F80
F80F80
FC1F80
7F7F00
7F7F00
3F7E00
1F7F00
077F80
000F80
000700
ENDCHAR
STARTCHAR C0114-r
ENCODING 114
SWIDTH 455 0
DWIDTH 17 0
BBX 14 19 2 0
BITMAP
FBE0
FBF0
FBF8
F8FC
F87C
F87C
F87C
F8FC
FBF8
FBF0
FBE0
F800
F800
FBF0
F9F8
F8F8
F8FC
F87C
7038
ENDCHAR
STARTCHAR C0115-s
ENCODING 115
SWIDTH 455 0
DWIDTH 17 0
BBX 15 20 1 0
BITMAP
0000
79FC
FCFE
FE7E
7E3E
3F1C
1F80
0FC0
0FE0
07F0
03F8
01FC
00FC
007E
787E
FC7E
FFFE
FFFE
7FFC
3FF8
ENDCHAR
STARTCHAR C0116-t
ENCODING 116
SWIDTH 482 0
DWIDTH 18 0
BBX 16 19 1 0
BITMAP
7FFF
FFFF
FFFF
FFFF
7FFF
0000
03E0
03E0
03E0
03E0
03E0
03E0
03E0
03E0
03E0
03E0
03E0
03E0
01C0
ENDCHAR
STARTCHAR C0117-u
ENCODING 117
SWIDTH 535 0
DWIDTH 20 0
BBX 16 19 2 0
BITMAP
700E
F81F
F81F
F81F
F81F
F81F
F81F
F81F
F81F
F81F
F81F
F81F
F81F
FC3F
FFFF
7FFE
7FFE
3FFC
0FF0
ENDCHAR
STARTCHAR C0118-v
ENCODING 118
SWIDTH 455 0
DWIDTH 17 0
BBX 17 19 0 0
BITMAP
F00F00
F80F80
F81F80
F81F00
FC1F00
7C3E00
7E3E00
3E7E00
3E7C00
3F7C00
1F3800
1FB800
0F9800
0F9000
0FD000
07C000
07C000
03E000
03C000
ENDCHAR
STARTCHAR C0119-w
ENCODING 119
SWIDTH 857 0
DWIDTH 32 0
BBX 31 19 1 0
BITMAP
F00F003C
F80F803C
F81FA07C
F81F207C
FC1F70FC
7C3E70F8
7E3E70F8
3E7EF9F0
3E7CF9F0
3F7CFDF0
1F387CE0
1FB87CE0
0F983EC0
0F903E40
0FD03F40
07C01F00
07C01F00
03E00F00
03C00E00
ENDCHAR
STARTCHAR C0120-x
ENCODING 120
SWIDTH 535 0
DWIDTH 20 0
BBX 17 19 1 0
BITMAP
780700
7C0F80
FC1F80
7E3F80
3F3F00
3F9E00
1FDC00
0FC800
07E000
03F000
01F800
0DFC00
1CFC00
3E7E00
3F3F00
7E1F80
FC1F80
780F80
780700
ENDCHAR
STARTCHAR C0121-y
ENCODING 121
SWIDTH 508 0
DWIDTH 19 0
BBX 15 19 1 0
BITMAP
781E
F81E
FC3E
7C3E
7E7E
3E7C
3EFC
1EF8
1CF8
1DF0
09F0
0BF0
03E0
07E0
07C0
07C0
0FC0
0F80
0780
ENDCHAR
STARTCHAR C0122-z
ENCODING 122
SWIDTH 508 0
DWIDTH 19 0
BBX 17 20 1 -1
BITMAP
7FE700
FFCF80
FFDF80
FFBF00
7F3F00
007E00
00FC00
01F800
01F800
03F000
07E000
0FC000
0FC000
1F8000
3F3F00
7E7F00
7EFF00
7DFF00
79FF00
120000
ENDCHAR
STARTCHAR C0123-{
ENCODING 123
SWIDTH 508 0
DWIDTH 19 0
BBX 14 19 2 0
BITMAP
FFFC
FFFC
C00C
C00C
C00C
C00C
C00C
C00C
C00C
C00C
C00C
C00C
C00C
C00C
C00C
C00C
C00C
FFFC
FFFC
ENDCHAR
STARTCHAR C0124-|
ENCODING 124
SWIDTH 508 0
DWIDTH 19 0
BBX 14 19 2 0
BITMAP
FFFC
FFFC
C00C
C00C
C00C
C00C
C00C
C00C
C00C
C00C
C00C
C00C
C00C
C00C
C00C
C00C
C00C
FFFC
FFFC
ENDCHAR
STARTCHAR C0125-}
ENCODING 125
SWIDTH 508 0
DWIDTH 19 0
BBX 14 19 2 0
BITMAP
FFFC
FFFC
C00C
C00C
C00C
C00C
C00C
C00C
C00C
C00C
C00C
C00C
C00C
C00C
C00C
C00C
C00C
FFFC
FFFC
ENDCHAR
STARTCHAR C0126-~
ENCODING 126
SWIDTH 508 0
DWIDTH 19 0
BBX 14 19 2 0
BITMAP
FFFC
FFFC
C00C
C00C
C00C
C00C
C00C
C00C
C00C
C00C
C00C
C00C
C00C
C00C
C00C
C00C
C00C
FFFC
FFFC
ENDCHAR
STARTCHAR C0127
ENCODING 127
SWIDTH 508 0
DWIDTH 19 0
BBX 14 19 2 0
BITMAP
FFFC
FFFC
C00C
C00C
C00C
C00C
C00C
C00C
C00C
C00C
C00C
C00C
C00C
C00C
C00C
C00C
C00C
FFFC
FFFC
ENDCHAR
STARTCHAR C0128
ENCODING 128
SWIDTH 508 0
DWIDTH 19 0
BBX 14 19 2 0
BITMAP
FFFC
FFFC
C00C
C00C
C00C
C00C
C00C
C00C
C00C
C00C
C00C
C00C
C00C
C00C
C00C
C00C
C00C
FFFC
FFFC
ENDCHAR
STARTCHAR C0129
ENCODING 129
SWIDTH 508 0
DWIDTH 19 0
BBX 14 19 2 0
BITMAP
FFFC
FFFC
C00C
C00C
C00C
C00C
C00C
C00C
C00C
C00C
C00C
C00C
C00C
C00C
C00C
C00C
C00C
FFFC
FFFC
ENDCHAR
STARTCHAR C0130
ENCODING 130
SWIDTH 508 0
DWIDTH 19 0
BBX 14 19 2 0
BITMAP
FFFC
FFFC
C00C
C00C
C00C
C00C
C00C
C00C
C00C
C00C
C00C
C00C
C00C
C00C
C00C
C00C
C00C
FFFC
FFFC
ENDCHAR
STARTCHAR C0131
ENCODING 131
SWIDTH 508 0
DWIDTH 19 0
BBX 14 19 2 0
BITMAP
FFFC
FFFC
C00C
C00C
C00C
C00C
C00C
C00C
C00C
C00C
C00C
C00C
C00C
C00C
C00C
C00C
C00C
FFFC
FFFC
ENDCHAR
STARTCHAR C0132
ENCODING 132
SWIDTH 508 0
DWIDTH 19 0
BBX 14 19 2 0
BITMAP
FFFC
FFFC
C00C
C00C
C00C
C00C
C00C
C00C
C00C
C00C
C00C
C00C
C00C
C00C
C00C
C00C
C00C
FFFC
FFFC
ENDCHAR
STARTCHAR C0133
ENCODING 133
SWIDTH 508 0
DWIDTH 19 0
BBX 14 19 2 0
BITMAP
FFFC
FFFC
C00C
C00C
C00C
C00C
C00C
C00C
C00C
C00C
C00C
C00C
C00C
C00C
C00C
C00C
C00C
FFFC
FFFC
ENDCHAR
STARTCHAR C0134
ENCODING 134
SWIDTH 508 0
DWIDTH 19 0
BBX 14 19 2 0
BITMAP
FFFC
FFFC
C00C
C00C
C00C
C00C
C00C
C00C
C00C
C00C
C00C
C00C
C00C
C00C
C00C
C00C
C00C
FFFC
FFFC
ENDCHAR
STARTCHAR C0135
ENCODING 135
SWIDTH 508 0
DWIDTH 19 0
BBX 14 19 2 0
BITMAP
FFFC
FFFC
C00C
C00C
C00C
C00C
C00C
C00C
C00C
C00C
C00C
C00C
C00C
C00C
C00C
C00C
C00C
FFFC
FFFC
ENDCHAR
STARTCHAR C0136
ENCODING 136
SWIDTH 508 0
DWIDTH 19 0
BBX 14 19 2 0
BITMAP
FFFC
FFFC
C00C
C00C
C00C
C00C
C00C
C00C
C00C
C00C
C00C
C00C
C00C
C00C
C00C
C00C
C00C
FFFC
FFFC
ENDCHAR
STARTCHAR C0137
ENCODING 137
SWIDTH 508 0
DWIDTH 19 0
BBX 14 19 2 0
BITMAP
FFFC
FFFC
C00C
C00C
C00C
C00C
C00C
C00C
C00C
C00C
C00C
C00C
C00C
C00C
C00C
C00C
C00C
FFFC
FFFC
ENDCHAR
STARTCHAR C0138
ENCODING 138
SWIDTH 455 0
DWIDTH 17 0
BBX 15 27 1 0
BITMAP
3018
7C7C
3FF8
1FF0
0FE0
0380
0000
0000
79FC
FCFE
FE7E
7E3E
3F1C
1F80
0FC0
0FE0
07F0
03F8
01FC
00FC
707E
F87E
FC7E
FFFE
FFFE
7FFC
3FF8
ENDCHAR
STARTCHAR C0139
ENCODING 139
SWIDTH 508 0
DWIDTH 19 0
BBX 14 19 2 0
BITMAP
FFFC
FFFC
C00C
C00C
C00C
C00C
C00C
C00C
C00C
C00C
C00C
C00C
C00C
C00C
C00C
C00C
C00C
FFFC
FFFC
ENDCHAR
STARTCHAR C0140
ENCODING 140
SWIDTH 508 0
DWIDTH 19 0
BBX 14 19 2 0
BITMAP
FFFC
FFFC
C00C
C00C
C00C
C00C
C00C
C00C
C00C
C00C
C00C
C00C
C00C
C00C
C00C
C00C
C00C
FFFC
FFFC
ENDCHAR
STARTCHAR C0141
ENCODING 141
SWIDTH 508 0
DWIDTH 19 0
BBX 14 19 2 0
BITMAP
FFFC
FFFC
C00C
C00C
C00C
C00C
C00C
C00C
C00C
C00C
C00C
C00C
C00C
C00C
C00C
C00C
C00C
FFFC
FFFC
ENDCHAR
STARTCHAR C0142
ENCODING 142
SWIDTH 508 0
DWIDTH 19 0
BBX 17 28 1 -1
BITMAP
180E00
1E3E00
1FFC00
0FF800
03F000
01C000
000000
000000
7FE700
FFCF80
FFDF80
FFBF00
7F3F00
007E00
00FC00
01F800
01F800
03F000
07E000
0FC000
0FC000
1F8000
3F3F00
7E7F00
7EFF00
7DFF00
79FF00
120000
ENDCHAR
STARTCHAR C0143
ENCODING 143
SWIDTH 508 0
DWIDTH 19 0
BBX 14 19 2 0
BITMAP
FFFC
FFFC
C00C
C00C
C00C
C00C
C00C
C00C
C00C
C00C
C00C
C00C
C00C
C00C
C00C
C00C
C00C
FFFC
FFFC
ENDCHAR
STARTCHAR C0144
ENCODING 144
SWIDTH 508 0
DWIDTH 19 0
BBX 14 19 2 0
BITMAP
FFFC
FFFC
C00C
C00C
C00C
C00C
C00C
C00C
C00C
C00C
C00C
C00C
C00C
C00C
C00C
C00C
C00C
FFFC
FFFC
ENDCHAR
STARTCHAR C0145
ENCODING 145
SWIDTH 508 0
DWIDTH 19 0
BBX 14 19 2 0
BITMAP
FFFC
FFFC
C00C
C00C
C00C
C00C
C00C
C00C
C00C
C00C
C00C
C00C
C00C
C00C
C00C
C00C
C00C
FFFC
FFFC
ENDCHAR
STARTCHAR C0146
ENCODING 146
SWIDTH 508 0
DWIDTH 19 0
BBX 14 19 2 0
BITMAP
FFFC
FFFC
C00C
C00C
C00C
C00C
C00C
C00C
C00C
C00C
C00C
C00C
C00C
C00C
C00C
C00C
C00C
FFFC
FFFC
ENDCHAR
STARTCHAR C0147
ENCODING 147
SWIDTH 508 0
DWIDTH 19 0
BBX 14 19 2 0
BITMAP
FFFC
FFFC
C00C
C00C
C00C
C00C
C00C
C00C
C00C
C00C
C00C
C00C
C00C
C00C
C00C
C00C
C00C
FFFC
FFFC
ENDCHAR
STARTCHAR C0148
ENCODING 148
SWIDTH 508 0
DWIDTH 19 0
BBX 14 19 2 0
BITMAP
FFFC
FFFC
C00C
C00C
C00C
C00C
C00C
C00C
C00C
C00C
C00C
C00C
C00C
C00C
C00C
C00C
C00C
FFFC
FFFC
ENDCHAR
STARTCHAR C0149
ENCODING 149
SWIDTH 508 0
DWIDTH 19 0
BBX 14 19 2 0
BITMAP
FFFC
FFFC
C00C
C00C
C00C
C00C
C00C
C00C
C00C
C00C
C00C
C00C
C00C
C00C
C00C
C00C
C00C
FFFC
FFFC
ENDCHAR
STARTCHAR C0150
ENCODING 150
SWIDTH 508 0
DWIDTH 19 0
BBX 14 19 2 0
BITMAP
FFFC
FFFC
C00C
C00C
C00C
C00C
C00C
C00C
C00C
C00C
C00C
C00C
C00C
C00C
C00C
C00C
C00C
FFFC
FFFC
ENDCHAR
STARTCHAR C0151
ENCODING 151
SWIDTH 508 0
DWIDTH 19 0
BBX 14 19 2 0
BITMAP
FFFC
FFFC
C00C
C00C
C00C
C00C
C00C
C00C
C00C
C00C
C00C
C00C
C00C
C00C
C00C
C00C
C00C
FFFC
FFFC
ENDCHAR
STARTCHAR C0152
ENCODING 152
SWIDTH 508 0
DWIDTH 19 0
BBX 14 19 2 0
BITMAP
FFFC
FFFC
C00C
C00C
C00C
C00C
C00C
C00C
C00C
C00C
C00C
C00C
C00C
C00C
C00C
C00C
C00C
FFFC
FFFC
ENDCHAR
STARTCHAR C0153
ENCODING 153
SWIDTH 508 0
DWIDTH 19 0
BBX 14 19 2 0
BITMAP
FFFC
FFFC
C00C
C00C
C00C
C00C
C00C
C00C
C00C
C00C
C00C
C00C
C00C
C00C
C00C
C00C
C00C
FFFC
FFFC
ENDCHAR
STARTCHAR C0154
ENCODING 154
SWIDTH 455 0
DWIDTH 17 0
BBX 15 27 1 0
BITMAP
3838
7FFC
3FF8
1FF0
0FE0
0380
0000
0000
79FC
FCFE
FE7E
7E3E
3F1C
1F80
0FC0
0FE0
07F0
03F8
01FC
00FC
007E
787E
FC7E
FFFE
FFFE
7FFC
3FF8
ENDCHAR
STARTCHAR C0155
ENCODING 155
SWIDTH 508 0
DWIDTH 19 0
BBX 14 19 2 0
BITMAP
FFFC
FFFC
C00C
C00C
C00C
C00C
C00C
C00C
C00C
C00C
C00C
C00C
C00C
C00C
C00C
C00C
C00C
FFFC
FFFC
ENDCHAR
STARTCHAR C0156
ENCODING 156
SWIDTH 508 0
DWIDTH 19 0
BBX 14 19 2 0
BITMAP
FFFC
FFFC
C00C
C00C
C00C
C00C
C00C
C00C
C00C
C00C
C00C
C00C
C00C
C00C
C00C
C00C
C00C
FFFC
FFFC
ENDCHAR
STARTCHAR C0157
ENCODING 157
SWIDTH 508 0
DWIDTH 19 0
BBX 14 19 2 0
BITMAP
FFFC
FFFC
C00C
C00C
C00C
C00C
C00C
C00C
C00C
C00C
C00C
C00C
C00C
C00C
C00C
C00C
C00C
FFFC
FFFC
ENDCHAR
STARTCHAR C0158
ENCODING 158
SWIDTH 508 0
DWIDTH 19 0
BBX 17 28 1 -1
BITMAP
1C1E00
1FFE00
1FFC00
0FF800
03F000
01C000
000000
000000
7FE700
FFCF80
FFDF80
FFBF00
7F3F00
007E00
00FC00
01F800
01F800
03F000
07E000
0FC000
0FC000
1F8000
3F3F00
7E7F00
7EFF00
7DFF00
79FF00
120000
ENDCHAR
STARTCHAR C0159
ENCODING 159
SWIDTH 508 0
DWIDTH 19 0
BBX 14 19 2 0
BITMAP
FFFC
FFFC
C00C
C00C
C00C
C00C
C00C
C00C
C00C
C00C
C00C
C00C
C00C
C00C
C00C
C00C
C00C
FFFC
FFFC
ENDCHAR
STARTCHAR C0160
ENCODING 160
SWIDTH 214 0
DWIDTH 8 0
BBX 1 1 0 -1
BITMAP
00
ENDCHAR
STARTCHAR C0161
ENCODING 161
SWIDTH 508 0
DWIDTH 19 0
BBX 14 19 2 0
BITMAP
FFFC
FFFC
C00C
C00C
C00C
C00C
C00C
C00C
C00C
C00C
C00C
C00C
C00C
C00C
C00C
C00C
C00C
FFFC
FFFC
ENDCHAR
STARTCHAR C0162
ENCODING 162
SWIDTH 508 0
DWIDTH 19 0
BBX 14 19 2 0
BITMAP
FFFC
FFFC
C00C
C00C
C00C
C00C
C00C
C00C
C00C
C00C
C00C
C00C
C00C
C00C
C00C
C00C
C00C
FFFC
FFFC
ENDCHAR
STARTCHAR C0163
ENCODING 163
SWIDTH 508 0
DWIDTH 19 0
BBX 14 19 2 0
BITMAP
FFFC
FFFC
C00C
C00C
C00C
C00C
C00C
C00C
C00C
C00C
C00C
C00C
C00C
C00C
C00C
C00C
C00C
FFFC
FFFC
ENDCHAR
STARTCHAR C0164
ENCODING 164
SWIDTH 616 0
DWIDTH 23 0
BBX 23 18 0 0
BITMAP
00FE00
3D7A00
7FFFF8
8000F4
802092
80DEF2
FF3BFE
828502
830282
830282
930282
AB0282
B28502
FF7BFE
80C602
803802
800004
7FFFBC
ENDCHAR
STARTCHAR C0165
ENCODING 165
SWIDTH 508 0
DWIDTH 19 0
BBX 14 19 2 0
BITMAP
FFFC
FFFC
C00C
C00C
C00C
C00C
C00C
C00C
C00C
C00C
C00C
C00C
C00C
C00C
C00C
C00C
C00C
FFFC
FFFC
ENDCHAR
STARTCHAR C0166
ENCODING 166
SWIDTH 508 0
DWIDTH 19 0
BBX 14 19 2 0
BITMAP
FFFC
FFFC
C00C
C00C
C00C
C00C
C00C
C00C
C00C
C00C
C00C
C00C
C00C
C00C
C00C
C00C
C00C
FFFC
FFFC
ENDCHAR
STARTCHAR C0167
ENCODING 167
SWIDTH 508 0
DWIDTH 19 0
BBX 14 19 2 0
BITMAP
FFFC
FFFC
C00C
C00C
C00C
C00C
C00C
C00C
C00C
C00C
C00C
C00C
C00C
C00C
C00C
C00C
C00C
FFFC
FFFC
ENDCHAR
STARTCHAR C0168
ENCODING 168
SWIDTH 508 0
DWIDTH 19 0
BBX 14 19 2 0
BITMAP
FFFC
FFFC
C00C
C00C
C00C
C00C
C00C
C00C
C00C
C00C
C00C
C00C
C00C
C00C
C00C
C00C
C00C
FFFC
FFFC
ENDCHAR
STARTCHAR C0169
ENCODING 169
SWIDTH 508 0
DWIDTH 19 0
BBX 14 19 2 0
BITMAP
FFFC
FFFC
C00C
C00C
C00C
C00C
C00C
C00C
C00C
C00C
C00C
C00C
C00C
C00C
C00C
C00C
C00C
FFFC
FFFC
ENDCHAR
STARTCHAR C0170
ENCODING 170
SWIDTH 508 0
DWIDTH 19 0
BBX 14 19 2 0
BITMAP
FFFC
FFFC
C00C
C00C
C00C
C00C
C00C
C00C
C00C
C00C
C00C
C00C
C00C
C00C
C00C
C00C
C00C
FFFC
FFFC
ENDCHAR
STARTCHAR C0171
ENCODING 171
SWIDTH 508 0
DWIDTH 19 0
BBX 14 19 2 0
BITMAP
FFFC
FFFC
C00C
C00C
C00C
C00C
C00C
C00C
C00C
C00C
C00C
C00C
C00C
C00C
C00C
C00C
C00C
FFFC
FFFC
ENDCHAR
STARTCHAR C0172
ENCODING 172
SWIDTH 508 0
DWIDTH 19 0
BBX 14 19 2 0
BITMAP
FFFC
FFFC
C00C
C00C
C00C
C00C
C00C
C00C
C00C
C00C
C00C
C00C
C00C
C00C
C00C
C00C
C00C
FFFC
FFFC
ENDCHAR
STARTCHAR C0173
ENCODING 173
SWIDTH 508 0
DWIDTH 19 0
BBX 14 19 2 0
BITMAP
FFFC
FFFC
C00C
C00C
C00C
C00C
C00C
C00C
C00C
C00C
C00C
C00C
C00C
C00C
C00C
C00C
C00C
FFFC
FFFC
ENDCHAR
STARTCHAR C0174
ENCODING 174
SWIDTH 508 0
DWIDTH 19 0
BBX 14 19 2 0
BITMAP
FFFC
FFFC
C00C
C00C
C00C
C00C
C00C
C00C
C00C
C00C
C00C
C00C
C00C
C00C
C00C
C00C
C00C
FFFC
FFFC
ENDCHAR
STARTCHAR C0175
ENCODING 175
SWIDTH 508 0
DWIDTH 19 0
BBX 14 19 2 0
BITMAP
FFFC
FFFC
C00C
C00C
C00C
C00C
C00C
C00C
C00C
C00C
C00C
C00C
C00C
C00C
C00C
C00C
C00C
FFFC
FFFC
ENDCHAR
STARTCHAR C0176
ENCODING 176
SWIDTH 508 0
DWIDTH 19 0
BBX 14 19 2 0
BITMAP
FFFC
FFFC
C00C
C00C
C00C
C00C
C00C
C00C
C00C
C00C
C00C
C00C
C00C
C00C
C00C
C00C
C00C
FFFC
FFFC
ENDCHAR
STARTCHAR C0177
ENCODING 177
SWIDTH 508 0
DWIDTH 19 0
BBX 14 19 2 0
BITMAP
FFFC
FFFC
C00C
C00C
C00C
C00C
C00C
C00C
C00C
C00C
C00C
C00C
C00C
C00C
C00C
C00C
C00C
FFFC
FFFC
ENDCHAR
STARTCHAR C0178
ENCODING 178
SWIDTH 508 0
DWIDTH 19 0
BBX 14 19 2 0
BITMAP
FFFC
FFFC
C00C
C00C
C00C
C00C
C00C
C00C
C00C
C00C
C00C
C00C
C00C
C00C
C00C
C00C
C00C
FFFC
FFFC
ENDCHAR
STARTCHAR C0179
ENCODING 179
SWIDTH 508 0
DWIDTH 19 0
BBX 14 19 2 0
BITMAP
FFFC
FFFC
C00C
C00C
C00C
C00C
C00C
C00C
C00C
C00C
C00C
C00C
C00C
C00C
C00C
C00C
C00C
FFFC
FFFC
ENDCHAR
STARTCHAR C0180
ENCODING 180
SWIDTH 508 0
DWIDTH 19 0
BBX 14 19 2 0
BITMAP
FFFC
FFFC
C00C
C00C
C00C
C00C
C00C
C00C
C00C
C00C
C00C
C00C
C00C
C00C
C00C
C00C
C00C
FFFC
FFFC
ENDCHAR
STARTCHAR C0181
ENCODING 181
SWIDTH 508 0
DWIDTH 19 0
BBX 14 19 2 0
BITMAP
FFFC
FFFC
C00C
C00C
C00C
C00C
C00C
C00C
C00C
C00C
C00C
C00C
C00C
C00C
C00C
C00C
C00C
FFFC
FFFC
ENDCHAR
STARTCHAR C0182
ENCODING 182
SWIDTH 508 0
DWIDTH 19 0
BBX 14 19 2 0
BITMAP
FFFC
FFFC
C00C
C00C
C00C
C00C
C00C
C00C
C00C
C00C
C00C
C00C
C00C
C00C
C00C
C00C
C00C
FFFC
FFFC
ENDCHAR
STARTCHAR C0183
ENCODING 183
SWIDTH 508 0
DWIDTH 19 0
BBX 14 19 2 0
BITMAP
FFFC
FFFC
C00C
C00C
C00C
C00C
C00C
C00C
C00C
C00C
C00C
C00C
C00C
C00C
C00C
C00C
C00C
FFFC
FFFC
ENDCHAR
STARTCHAR C0184
ENCODING 184
SWIDTH 508 0
DWIDTH 19 0
BBX 14 19 2 0
BITMAP
FFFC
FFFC
C00C
C00C
C00C
C00C
C00C
C00C
C00C
C00C
C00C
C00C
C00C
C00C
C00C
C00C
C00C
FFFC
FFFC
ENDCHAR
STARTCHAR C0185
ENCODING 185
SWIDTH 508 0
DWIDTH 19 0
BBX 14 19 2 0
BITMAP
FFFC
FFFC
C00C
C00C
C00C
C00C
C00C
C00C
C00C
C00C
C00C
C00C
C00C
C00C
C00C
C00C
C00C
FFFC
FFFC
ENDCHAR
STARTCHAR C0186
ENCODING 186
SWIDTH 508 0
DWIDTH 19 0
BBX 14 19 2 0
BITMAP
FFFC
FFFC
C00C
C00C
C00C
C00C
C00C
C00C
C00C
C00C
C00C
C00C
C00C
C00C
C00C
C00C
C00C
FFFC
FFFC
ENDCHAR
STARTCHAR C0187
ENCODING 187
SWIDTH 508 0
DWIDTH 19 0
BBX 14 19 2 0
BITMAP
FFFC
FFFC
C00C
C00C
C00C
C00C
C00C
C00C
C00C
C00C
C00C
C00C
C00C
C00C
C00C
C00C
C00C
FFFC
FFFC
ENDCHAR
STARTCHAR C0188
ENCODING 188
SWIDTH 508 0
DWIDTH 19 0
BBX 14 19 2 0
BITMAP
FFFC
FFFC
C00C
C00C
C00C
C00C
C00C
C00C
C00C
C00C
C00C
C00C
C00C
C00C
C00C
C00C
C00C
FFFC
FFFC
ENDCHAR
STARTCHAR C0189
ENCODING 189
SWIDTH 508 0
DWIDTH 19 0
BBX 14 19 2 0
BITMAP
FFFC
FFFC
C00C
C00C
C00C
C00C
C00C
C00C
C00C
C00C
C00C
C00C
C00C
C00C
C00C
C00C
C00C
FFFC
FFFC
ENDCHAR
STARTCHAR C0190
ENCODING 190
SWIDTH 508 0
DWIDTH 19 0
BBX 14 19 2 0
BITMAP
FFFC
FFFC
C00C
C00C
C00C
C00C
C00C
C00C
C00C
C00C
C00C
C00C
C00C
C00C
C00C
C00C
C00C
FFFC
FFFC
ENDCHAR
STARTCHAR C0191
ENCODING 191
SWIDTH 508 0
DWIDTH 19 0
BBX 14 19 2 0
BITMAP
FFFC
FFFC
C00C
C00C
C00C
C00C
C00C
C00C
C00C
C00C
C00C
C00C
C00C
C00C
C00C
C00C
C00C
FFFC
FFFC
ENDCHAR
STARTCHAR C0192
ENCODING 192
SWIDTH 508 0
DWIDTH 19 0
BBX 14 19 2 0
BITMAP
FFFC
FFFC
C00C
C00C
C00C
C00C
C00C
C00C
C00C
C00C
C00C
C00C
C00C
C00C
C00C
C00C
C00C
FFFC
FFFC
ENDCHAR
STARTCHAR C0193
ENCODING 193
SWIDTH 508 0
DWIDTH 19 0
BBX 14 19 2 0
BITMAP
FFFC
FFFC
C00C
C00C
C00C
C00C
C00C
C00C
C00C
C00C
C00C
C00C
C00C
C00C
C00C
C00C
C00C
FFFC
FFFC
ENDCHAR
STARTCHAR C0194
ENCODING 194
SWIDTH 508 0
DWIDTH 19 0
BBX 14 19 2 0
BITMAP
FFFC
FFFC
C00C
C00C
C00C
C00C
C00C
C00C
C00C
C00C
C00C
C00C
C00C
C00C
C00C
C00C
C00C
FFFC
FFFC
ENDCHAR
STARTCHAR C0195
ENCODING 195
SWIDTH 508 0
DWIDTH 19 0
BBX 14 19 2 0
BITMAP
FFFC
FFFC
C00C
C00C
C00C
C00C
C00C
C00C
C00C
C00C
C00C
C00C
C00C
C00C
C00C
C00C
C00C
FFFC
FFFC
ENDCHAR
STARTCHAR C0196
ENCODING 196
SWIDTH 508 0
DWIDTH 19 0
BBX 14 19 2 0
BITMAP
FFFC
FFFC
C00C
C00C
C00C
C00C
C00C
C00C
C00C
C00C
C00C
C00C
C00C
C00C
C00C
C00C
C00C
FFFC
FFFC
ENDCHAR
STARTCHAR C0197
ENCODING 197
SWIDTH 508 0
DWIDTH 19 0
BBX 14 19 2 0
BITMAP
FFFC
FFFC
C00C
C00C
C00C
C00C
C00C
C00C
C00C
C00C
C00C
C00C
C00C
C00C
C00C
C00C
C00C
FFFC
FFFC
ENDCHAR
STARTCHAR C0198
ENCODING 198
SWIDTH 508 0
DWIDTH 19 0
BBX 14 19 2 0
BITMAP
FFFC
FFFC
C00C
C00C
C00C
C00C
C00C
C00C
C00C
C00C
C00C
C00C
C00C
C00C
C00C
C00C
C00C
FFFC
FFFC
ENDCHAR
STARTCHAR C0199
ENCODING 199
SWIDTH 508 0
DWIDTH 19 0
BBX 14 19 2 0
BITMAP
FFFC
FFFC
C00C
C00C
C00C
C00C
C00C
C00C
C00C
C00C
C00C
C00C
C00C
C00C
C00C
C00C
C00C
FFFC
FFFC
ENDCHAR
STARTCHAR C0200
ENCODING 200
SWIDTH 508 0
DWIDTH 19 0
BBX 14 19 2 0
BITMAP
FFFC
FFFC
C00C
C00C
C00C
C00C
C00C
C00C
C00C
C00C
C00C
C00C
C00C
C00C
C00C
C00C
C00C
FFFC
FFFC
ENDCHAR
STARTCHAR C0201
ENCODING 201
SWIDTH 508 0
DWIDTH 19 0
BBX 14 19 2 0
BITMAP
FFFC
FFFC
C00C
C00C
C00C
C00C
C00C
C00C
C00C
C00C
C00C
C00C
C00C
C00C
C00C
C00C
C00C
FFFC
FFFC
ENDCHAR
STARTCHAR C0202
ENCODING 202
SWIDTH 508 0
DWIDTH 19 0
BBX 14 19 2 0
BITMAP
FFFC
FFFC
C00C
C00C
C00C
C00C
C00C
C00C
C00C
C00C
C00C
C00C
C00C
C00C
C00C
C00C
C00C
FFFC
FFFC
ENDCHAR
STARTCHAR C0203
ENCODING 203
SWIDTH 508 0
DWIDTH 19 0
BBX 14 19 2 0
BITMAP
FFFC
FFFC
C00C
C00C
C00C
C00C
C00C
C00C
C00C
C00C
C00C
C00C
C00C
C00C
C00C
C00C
C00C
FFFC
FFFC
ENDCHAR
STARTCHAR C0204
ENCODING 204
SWIDTH 508 0
DWIDTH 19 0
BBX 14 19 2 0
BITMAP
FFFC
FFFC
C00C
C00C
C00C
C00C
C00C
C00C
C00C
C00C
C00C
C00C
C00C
C00C
C00C
C00C
C00C
FFFC
FFFC
ENDCHAR
STARTCHAR C0205
ENCODING 205
SWIDTH 508 0
DWIDTH 19 0
BBX 14 19 2 0
BITMAP
FFFC
FFFC
C00C
C00C
C00C
C00C
C00C
C00C
C00C
C00C
C00C
C00C
C00C
C00C
C00C
C00C
C00C
FFFC
FFFC
ENDCHAR
STARTCHAR C0206
ENCODING 206
SWIDTH 508 0
DWIDTH 19 0
BBX 14 19 2 0
BITMAP
FFFC
FFFC
C00C
C00C
C00C
C00C
C00C
C00C
C00C
C00C
C00C
C00C
C00C
C00C
C00C
C00C
C00C
FFFC
FFFC
ENDCHAR
STARTCHAR C0207
ENCODING 207
SWIDTH 508 0
DWIDTH 19 0
BBX 14 19 2 0
BITMAP
FFFC
FFFC
C00C
C00C
C00C
C00C
C00C
C00C
C00C
C00C
C00C
C00C
C00C
C00C
C00C
C00C
C00C
FFFC
FFFC
ENDCHAR
STARTCHAR C0208
ENCODING 208
SWIDTH 508 0
DWIDTH 19 0
BBX 14 19 2 0
BITMAP
FFFC
FFFC
C00C
C00C
C00C
C00C
C00C
C00C
C00C
C00C
C00C
C00C
C00C
C00C
C00C
C00C
C00C
FFFC
FFFC
ENDCHAR
STARTCHAR C0209
ENCODING 209
SWIDTH 508 0
DWIDTH 19 0
BBX 14 19 2 0
BITMAP
FFFC
FFFC
C00C
C00C
C00C
C00C
C00C
C00C
C00C
C00C
C00C
C00C
C00C
C00C
C00C
C00C
C00C
FFFC
FFFC
ENDCHAR
STARTCHAR C0210
ENCODING 210
SWIDTH 508 0
DWIDTH 19 0
BBX 14 19 2 0
BITMAP
FFFC
FFFC
C00C
C00C
C00C
C00C
C00C
C00C
C00C
C00C
C00C
C00C
C00C
C00C
C00C
C00C
C00C
FFFC
FFFC
ENDCHAR
STARTCHAR C0211
ENCODING 211
SWIDTH 508 0
DWIDTH 19 0
BBX 14 19 2 0
BITMAP
FFFC
FFFC
C00C
C00C
C00C
C00C
C00C
C00C
C00C
C00C
C00C
C00C
C00C
C00C
C00C
C00C
C00C
FFFC
FFFC
ENDCHAR
STARTCHAR C0212
ENCODING 212
SWIDTH 508 0
DWIDTH 19 0
BBX 14 19 2 0
BITMAP
FFFC
FFFC
C00C
C00C
C00C
C00C
C00C
C00C
C00C
C00C
C00C
C00C
C00C
C00C
C00C
C00C
C00C
FFFC
FFFC
ENDCHAR
STARTCHAR C0213
ENCODING 213
SWIDTH 508 0
DWIDTH 19 0
BBX 14 19 2 0
BITMAP
FFFC
FFFC
C00C
C00C
C00C
C00C
C00C
C00C
C00C
C00C
C00C
C00C
C00C
C00C
C00C
C00C
C00C
FFFC
FFFC
ENDCHAR
STARTCHAR C0214
ENCODING 214
SWIDTH 508 0
DWIDTH 19 0
BBX 14 19 2 0
BITMAP
FFFC
FFFC
C00C
C00C
C00C
C00C
C00C
C00C
C00C
C00C
C00C
C00C
C00C
C00C
C00C
C00C
C00C
FFFC
FFFC
ENDCHAR
STARTCHAR C0215
ENCODING 215
SWIDTH 482 0
DWIDTH 18 0
BBX 18 18 0 0
BITMAP
00FE00
00E180
010040
016040
011640
010980
030080
1CA100
609900
A08200
CBFC00
482000
702000
202000
23A000
144000
084000
078000
ENDCHAR
STARTCHAR C0216
ENCODING 216
SWIDTH 508 0
DWIDTH 19 0
BBX 14 19 2 0
BITMAP
FFFC
FFFC
C00C
C00C
C00C
C00C
C00C
C00C
C00C
C00C
C00C
C00C
C00C
C00C
C00C
C00C
C00C
FFFC
FFFC
ENDCHAR
STARTCHAR C0217
ENCODING 217
SWIDTH 508 0
DWIDTH 19 0
BBX 14 19 2 0
BITMAP
FFFC
FFFC
C00C
C00C
C00C
C00C
C00C
C00C
C00C
C00C
C00C
C00C
C00C
C00C
C00C
C00C
C00C
FFFC
FFFC
ENDCHAR
STARTCHAR C0218
ENCODING 218
SWIDTH 508 0
DWIDTH 19 0
BBX 14 19 2 0
BITMAP
FFFC
FFFC
C00C
C00C
C00C
C00C
C00C
C00C
C00C
C00C
C00C
C00C
C00C
C00C
C00C
C00C
C00C
FFFC
FFFC
ENDCHAR
STARTCHAR C0219
ENCODING 219
SWIDTH 508 0
DWIDTH 19 0
BBX 14 19 2 0
BITMAP
FFFC
FFFC
C00C
C00C
C00C
C00C
C00C
C00C
C00C
C00C
C00C
C00C
C00C
C00C
C00C
C00C
C00C
FFFC
FFFC
ENDCHAR
STARTCHAR C0220
ENCODING 220
SWIDTH 508 0
DWIDTH 19 0
BBX 14 19 2 0
BITMAP
FFFC
FFFC
C00C
C00C
C00C
C00C
C00C
C00C
C00C
C00C
C00C
C00C
C00C
C00C
C00C
C00C
C00C
FFFC
FFFC
ENDCHAR
STARTCHAR C0221
ENCODING 221
SWIDTH 508 0
DWIDTH 19 0
BBX 14 19 2 0
BITMAP
FFFC
FFFC
C00C
C00C
C00C
C00C
C00C
C00C
C00C
C00C
C00C
C00C
C00C
C00C
C00C
C00C
C00C
FFFC
FFFC
ENDCHAR
STARTCHAR C0222
ENCODING 222
SWIDTH 508 0
DWIDTH 19 0
BBX 14 19 2 0
BITMAP
FFFC
FFFC
C00C
C00C
C00C
C00C
C00C
C00C
C00C
C00C
C00C
C00C
C00C
C00C
C00C
C00C
C00C
FFFC
FFFC
ENDCHAR
STARTCHAR C0223
ENCODING 223
SWIDTH 589 0
DWIDTH 22 0
BBX 22 18 0 0
BITMAP
0F8700
070480
010500
01FE00
028600
028900
3E49F0
4552E8
893498
C8D494
C7D454
A12408
590208
3E03B0
FFFFFC
000000
000000
F8FCF8
ENDCHAR
STARTCHAR C0224
ENCODING 224
SWIDTH 508 0
DWIDTH 19 0
BBX 14 19 2 0
BITMAP
FFFC
FFFC
C00C
C00C
C00C
C00C
C00C
C00C
C00C
C00C
C00C
C00C
C00C
C00C
C00C
C00C
C00C
FFFC
FFFC
ENDCHAR
STARTCHAR C0225
ENCODING 225
SWIDTH 508 0
DWIDTH 19 0
BBX 14 19 2 0
BITMAP
FFFC
FFFC
C00C
C00C
C00C
C00C
C00C
C00C
C00C
C00C
C00C
C00C
C00C
C00C
C00C
C00C
C00C
FFFC
FFFC
ENDCHAR
STARTCHAR C0226
ENCODING 226
SWIDTH 669 0
DWIDTH 25 0
BBX 25 18 0 0
BITMAP
1F87E000
60D83000
40501000
CE238800
91244800
91244800
8E238800
40501000
60D83780
7B8FFE80
44011680
40001680
40001680
40001680
40001E80
5C001300
40001000
3FAFE000
ENDCHAR
STARTCHAR C0227
ENCODING 227
SWIDTH 508 0
DWIDTH 19 0
BBX 14 19 2 0
BITMAP
FFFC
FFFC
C00C
C00C
C00C
C00C
C00C
C00C
C00C
C00C
C00C
C00C
C00C
C00C
C00C
C00C
C00C
FFFC
FFFC
ENDCHAR
STARTCHAR C0228
ENCODING 228
SWIDTH 455 0
DWIDTH 17 0
BBX 17 18 0 0
BITMAP
001E00
002100
00C080
00A080
00D080
012900
02F600
02DC00
05A000
084000
108000
210000
440000
6C0000
900000
600000
1FFF00
7C0000
ENDCHAR
STARTCHAR C0229
ENCODING 229
SWIDTH 508 0
DWIDTH 19 0
BBX 14 19 2 0
BITMAP
FFFC
FFFC
C00C
C00C
C00C
C00C
C00C
C00C
C00C
C00C
C00C
C00C
C00C
C00C
C00C
C00C
C00C
FFFC
FFFC
ENDCHAR
STARTCHAR C0230
ENCODING 230
SWIDTH 508 0
DWIDTH 19 0
BBX 14 19 2 0
BITMAP
FFFC
FFFC
C00C
C00C
C00C
C00C
C00C
C00C
C00C
C00C
C00C
C00C
C00C
C00C
C00C
C00C
C00C
FFFC
FFFC
ENDCHAR
STARTCHAR C0231
ENCODING 231
SWIDTH 508 0
DWIDTH 19 0
BBX 14 19 2 0
BITMAP
FFFC
FFFC
C00C
C00C
C00C
C00C
C00C
C00C
C00C
C00C
C00C
C00C
C00C
C00C
C00C
C00C
C00C
FFFC
FFFC
ENDCHAR
STARTCHAR C0232
ENCODING 232
SWIDTH 508 0
DWIDTH 19 0
BBX 14 19 2 0
BITMAP
FFFC
FFFC
C00C
C00C
C00C
C00C
C00C
C00C
C00C
C00C
C00C
C00C
C00C
C00C
C00C
C00C
C00C
FFFC
FFFC
ENDCHAR
STARTCHAR C0233
ENCODING 233
SWIDTH 508 0
DWIDTH 19 0
BBX 14 19 2 0
BITMAP
FFFC
FFFC
C00C
C00C
C00C
C00C
C00C
C00C
C00C
C00C
C00C
C00C
C00C
C00C
C00C
C00C
C00C
FFFC
FFFC
ENDCHAR
STARTCHAR C0234
ENCODING 234
SWIDTH 482 0
DWIDTH 18 0
BBX 18 18 0 0
BITMAP
03F000
1E0E00
240580
4804C0
880440
800040
800040
800040
484480
344500
144900
100100
100100
1FFF00
100100
100100
100100
0FFE00
ENDCHAR
STARTCHAR C0235
ENCODING 235
SWIDTH 669 0
DWIDTH 25 0
BBX 25 18 0 0
BITMAP
00030000
00050000
00048000
00088000
00084000
01102000
02902000
04A61000
04791000
0840A800
0820C000
13200000
1D100400
20500200
20280200
40080100
80040100
FFFFFF80
ENDCHAR
STARTCHAR C0236
ENCODING 236
SWIDTH 508 0
DWIDTH 19 0
BBX 14 19 2 0
BITMAP
FFFC
FFFC
C00C
C00C
C00C
C00C
C00C
C00C
C00C
C00C
C00C
C00C
C00C
C00C
C00C
C00C
C00C
FFFC
FFFC
ENDCHAR
STARTCHAR C0237
ENCODING 237
SWIDTH 508 0
DWIDTH 19 0
BBX 14 19 2 0
BITMAP
FFFC
FFFC
C00C
C00C
C00C
C00C
C00C
C00C
C00C
C00C
C00C
C00C
C00C
C00C
C00C
C00C
C00C
FFFC
FFFC
ENDCHAR
STARTCHAR C0238
ENCODING 238
SWIDTH 508 0
DWIDTH 19 0
BBX 19 18 0 0
BITMAP
07F800
180600
207900
4E4880
494840
893040
860020
800020
9C0020
A40020
A40040
9C3F80
404000
204000
202000
181000
062000
01C000
ENDCHAR
STARTCHAR C0239
ENCODING 239
SWIDTH 508 0
DWIDTH 19 0
BBX 14 19 2 0
BITMAP
FFFC
FFFC
C00C
C00C
C00C
C00C
C00C
C00C
C00C
C00C
C00C
C00C
C00C
C00C
C00C
C00C
C00C
FFFC
FFFC
ENDCHAR
STARTCHAR C0240
ENCODING 240
SWIDTH 508 0
DWIDTH 19 0
BBX 14 19 2 0
BITMAP
FFFC
FFFC
C00C
C00C
C00C
C00C
C00C
C00C
C00C
C00C
C00C
C00C
C00C
C00C
C00C
C00C
C00C
FFFC
FFFC
ENDCHAR
STARTCHAR C0241
ENCODING 241
SWIDTH 508 0
DWIDTH 19 0
BBX 14 19 2 0
BITMAP
FFFC
FFFC
C00C
C00C
C00C
C00C
C00C
C00C
C00C
C00C
C00C
C00C
C00C
C00C
C00C
C00C
C00C
FFFC
FFFC
ENDCHAR
STARTCHAR C0242
ENCODING 242
SWIDTH 508 0
DWIDTH 19 0
BBX 14 19 2 0
BITMAP
FFFC
FFFC
C00C
C00C
C00C
C00C
C00C
C00C
C00C
C00C
C00C
C00C
C00C
C00C
C00C
C00C
C00C
FFFC
FFFC
ENDCHAR
STARTCHAR C0243
ENCODING 243
SWIDTH 508 0
DWIDTH 19 0
BBX 14 19 2 0
BITMAP
FFFC
FFFC
C00C
C00C
C00C
C00C
C00C
C00C
C00C
C00C
C00C
C00C
C00C
C00C
C00C
C00C
C00C
FFFC
FFFC
ENDCHAR
STARTCHAR C0244
ENCODING 244
SWIDTH 562 0
DWIDTH 21 0
BBX 21 18 0 0
BITMAP
000700
001D00
00ED18
7F0D30
C40D40
840D00
840D78
840D00
840D20
C40D78
7F8D08
24FD00
249D00
270700
240000
140000
140000
1C0000
ENDCHAR
STARTCHAR C0245
ENCODING 245
SWIDTH 508 0
DWIDTH 19 0
BBX 14 19 2 0
BITMAP
FFFC
FFFC
C00C
C00C
C00C
C00C
C00C
C00C
C00C
C00C
C00C
C00C
C00C
C00C
C00C
C00C
C00C
FFFC
FFFC
ENDCHAR
STARTCHAR C0246
ENCODING 246
SWIDTH 455 0
DWIDTH 17 0
BBX 17 19 0 0
BITMAP
3FFE00
C00100
800100
800100
800100
800100
800100
800100
800100
800100
FFFF00
FFFF00
022000
03E000
3FFC00
400200
3FFC00
000380
000380
ENDCHAR
STARTCHAR C0247
ENCODING 247
SWIDTH 508 0
DWIDTH 19 0
BBX 19 19 0 0
BITMAP
004000
07BC00
087200
100900
208080
434140
840140
81F0C0
82D0C0
A330A0
92B040
915040
90E040
480040
440080
238100
104200
0C0400
03F800
ENDCHAR
STARTCHAR C0248
ENCODING 248
SWIDTH 508 0
DWIDTH 19 0
BBX 14 19 2 0
BITMAP
FFFC
FFFC
C00C
C00C
C00C
C00C
C00C
C00C
C00C
C00C
C00C
C00C
C00C
C00C
C00C
C00C
C00C
FFFC
FFFC
ENDCHAR
STARTCHAR C0249
ENCODING 249
SWIDTH 508 0
DWIDTH 19 0
BBX 14 19 2 0
BITMAP
FFFC
FFFC
C00C
C00C
C00C
C00C
C00C
C00C
C00C
C00C
C00C
C00C
C00C
C00C
C00C
C00C
C00C
FFFC
FFFC
ENDCHAR
STARTCHAR C0250
ENCODING 250
SWIDTH 508 0
DWIDTH 19 0
BBX 14 19 2 0
BITMAP
FFFC
FFFC
C00C
C00C
C00C
C00C
C00C
C00C
C00C
C00C
C00C
C00C
C00C
C00C
C00C
C00C
C00C
FFFC
FFFC
ENDCHAR
STARTCHAR C0251
ENCODING 251
SWIDTH 589 0
DWIDTH 22 0
BBX 21 18 0 0
BITMAP
0007F0
FFF810
800810
FFF010
800010
9C0010
A20010
BE0010
8001D0
800770
800808
8005D0
800A28
800A28
8009C8
C00C08
3FF770
0001C0
ENDCHAR
STARTCHAR C0252
ENCODING 252
SWIDTH 482 0
DWIDTH 18 0
BBX 18 18 0 0
BITMAP
601E00
D03400
484840
284840
1C48C0
064740
034040
01C080
01BF00
036800
06D400
3BFA00
F92D00
C61680
C60B40
A605C0
5C0340
3801C0
ENDCHAR
STARTCHAR C0253
ENCODING 253
SWIDTH 508 0
DWIDTH 19 0
BBX 14 19 2 0
BITMAP
FFFC
FFFC
C00C
C00C
C00C
C00C
C00C
C00C
C00C
C00C
C00C
C00C
C00C
C00C
C00C
C00C
C00C
FFFC
FFFC
ENDCHAR
STARTCHAR C0254
ENCODING 254
SWIDTH 508 0
DWIDTH 19 0
BBX 14 19 2 0
BITMAP
FFFC
FFFC
C00C
C00C
C00C
C00C
C00C
C00C
C00C
C00C
C00C
C00C
C00C
C00C
C00C
C00C
C00C
FFFC
FFFC
ENDCHAR
STARTCHAR C0255
ENCODING 255
SWIDTH 508 0
DWIDTH 19 0
BBX 14 19 2 0
BITMAP
FFFC
FFFC
C00C
C00C
C00C
C00C
C00C
C00C
C00C
C00C
C00C
C00C
C00C
C00C
C00C
C00C
C00C
FFFC
FFFC
ENDCHAR
ENDFONT

